<svg width="175" height="46" viewBox="0 0 175 46" fill="none" xmlns="http://www.w3.org/2000/svg">
<path d="M11.87 41.415C10.04 41.415 8.495 41.025 7.235 40.245C6.005 39.495 5.39 38.4 5.39 36.96C5.39 36.03 5.675 35.19 6.245 34.44C6.845 33.69 7.7 33.195 8.81 32.955C8.63 33.765 8.495 34.38 8.405 34.8C8.345 35.22 8.315 35.625 8.315 36.015C8.315 37.215 8.645 38.145 9.305 38.805C9.965 39.495 11 39.84 12.41 39.84C14.12 39.84 15.515 39.375 16.595 38.445C17.705 37.545 18.605 36.36 19.295 34.89C19.985 33.42 20.54 31.86 20.96 30.21C21.44 28.29 21.815 26.415 22.085 24.585C22.355 22.725 22.67 21.225 23.03 20.085C21.86 21.975 20.51 23.52 18.98 24.72C17.45 25.89 15.665 26.475 13.625 26.475C11.615 26.475 10.19 25.92 9.35 24.81C8.51 23.7 8.09 22.335 8.09 20.715C8.09 19.605 8.225 18.405 8.495 17.115C8.795 15.795 9.14 14.46 9.53 13.11C9.92 11.73 10.25 10.41 10.52 9.15C10.82 7.86 10.97 6.72 10.97 5.73C10.97 4.83 10.79 4.065 10.43 3.435C10.1 2.805 9.47 2.49 8.54 2.49C7.46 2.49 6.575 2.895 5.885 3.705C5.225 4.485 4.73 5.445 4.4 6.585C4.07 7.725 3.905 8.805 3.905 9.825C3.905 10.305 3.935 10.71 3.995 11.04C4.085 11.37 4.235 11.805 4.445 12.345C2.975 12.345 1.94 12.015 1.34 11.355C0.74 10.665 0.44 9.84 0.44 8.88C0.44 7.98 0.665 7.05 1.115 6.09C1.565 5.1 2.195 4.2 3.005 3.39C3.845 2.55 4.82 1.875 5.93 1.365C7.04 0.854999 8.24 0.599999 9.53 0.599999C11.33 0.599999 12.65 1.095 13.49 2.085C14.36 3.045 14.795 4.2 14.795 5.55C14.795 6.21 14.69 7.005 14.48 7.935C14.27 8.865 13.955 10.095 13.535 11.625C13.115 13.155 12.74 14.61 12.41 15.99C12.08 17.34 11.915 18.615 11.915 19.815C11.915 21.075 12.155 22.095 12.635 22.875C13.115 23.655 13.94 24.045 15.11 24.045C16.46 24.045 17.72 23.55 18.89 22.56C20.09 21.54 21.17 20.205 22.13 18.555C23.09 16.905 23.885 15.135 24.515 13.245C24.905 12.105 25.295 10.83 25.685 9.42C26.105 7.98 26.54 6.585 26.99 5.235C27.47 3.885 27.965 2.775 28.475 1.905C29.015 1.035 29.585 0.599999 30.185 0.599999C30.515 0.599999 30.965 0.749999 31.535 1.05C32.135 1.35 32.705 1.77 33.245 2.31C32.585 3.3 32.015 4.245 31.535 5.145C31.085 6.045 30.65 7.02 30.23 8.07C29.84 9.12 29.435 10.365 29.015 11.805C28.595 13.215 28.13 14.94 27.62 16.98C27.11 18.99 26.51 21.435 25.82 24.315C25.34 26.235 24.77 28.2 24.11 30.21C23.45 32.22 22.595 34.065 21.545 35.745C20.495 37.455 19.19 38.82 17.63 39.84C16.07 40.89 14.15 41.415 11.87 41.415ZM32.7317 34.44C31.3817 34.44 30.4517 33.99 29.9417 33.09C29.4617 32.22 29.2217 31.26 29.2217 30.21C29.2217 29.25 29.3717 28.275 29.6717 27.285C29.9717 26.265 30.3767 25.32 30.8867 24.45C31.4267 23.58 32.0117 22.89 32.6417 22.38C33.3017 21.84 33.9617 21.57 34.6217 21.57C34.8317 21.57 35.0717 21.615 35.3417 21.705C35.6417 21.765 35.8517 21.87 35.9717 22.02C35.4917 22.62 34.9967 23.4 34.4867 24.36C34.0067 25.29 33.6017 26.265 33.2717 27.285C32.9717 28.305 32.8217 29.235 32.8217 30.075C32.8217 30.675 32.9267 31.17 33.1367 31.56C33.3767 31.95 33.7817 32.145 34.3517 32.145C34.9217 32.145 35.5967 31.83 36.3767 31.2C37.1867 30.54 37.9517 29.79 38.6717 28.95C37.7117 28.08 37.0217 27.135 36.6017 26.115C36.1817 25.065 35.9717 23.805 35.9717 22.335C35.9717 21.705 36.1217 20.985 36.4217 20.175C36.7517 19.365 37.2617 18.66 37.9517 18.06C38.6717 17.46 39.6317 17.16 40.8317 17.16C42.1217 17.16 43.0217 17.52 43.5317 18.24C44.0717 18.96 44.3417 19.815 44.3417 20.805C44.3417 21.915 44.0417 23.16 43.4417 24.54C42.8717 25.92 42.1817 27.225 41.3717 28.455C41.7317 28.635 42.1517 28.725 42.6317 28.725C43.0817 28.725 43.6217 28.62 44.2517 28.41C44.8817 28.2 45.4967 27.855 46.0967 27.375C46.6967 26.865 47.1767 26.19 47.5367 25.35L48.3467 25.935C47.6867 27.465 46.8017 28.59 45.6917 29.31C44.6117 30 43.5467 30.345 42.4967 30.345C42.1067 30.345 41.7167 30.315 41.3267 30.255C40.9367 30.165 40.5767 30.06 40.2467 29.94C39.2267 31.14 38.0567 32.19 36.7367 33.09C35.4167 33.99 34.0817 34.44 32.7317 34.44ZM39.8417 27.51C40.5617 26.46 41.1767 25.335 41.6867 24.135C42.1967 22.935 42.4517 21.825 42.4517 20.805C42.4517 19.485 42.0317 18.825 41.1917 18.825C40.6217 18.825 40.0367 19.23 39.4367 20.04C38.8367 20.85 38.5367 21.87 38.5367 23.1C38.5367 23.73 38.6417 24.495 38.8517 25.395C39.0917 26.295 39.4217 27 39.8417 27.51ZM49.9249 34.35C48.9049 34.35 48.0649 33.885 47.4049 32.955C46.7749 31.995 46.4599 30.9 46.4599 29.67C46.4599 28.83 46.5949 27.84 46.8649 26.7C47.1349 25.56 47.4799 24.45 47.8999 23.37C48.3499 22.29 48.7999 21.39 49.2499 20.67C49.7299 19.95 50.1649 19.59 50.5549 19.59C50.7649 19.59 51.0799 19.71 51.4999 19.95C51.9499 20.16 52.3399 20.43 52.6699 20.76C52.3399 21.24 51.9349 21.975 51.4549 22.965C51.0049 23.955 50.5999 25.02 50.2399 26.16C49.8799 27.3 49.6999 28.335 49.6999 29.265C49.6999 29.385 49.7149 29.67 49.7449 30.12C49.8049 30.57 49.9249 30.99 50.1049 31.38C50.2849 31.77 50.5999 31.965 51.0499 31.965C51.5599 31.965 52.0999 31.695 52.6699 31.155C53.2699 30.585 53.8699 29.865 54.4699 28.995C55.0999 28.095 55.6999 27.135 56.2699 26.115C56.8699 25.095 57.3949 24.105 57.8449 23.145C58.3249 22.185 58.7149 21.375 59.0149 20.715C59.2849 20.745 59.6299 20.82 60.0499 20.94C60.4999 21.06 60.8899 21.225 61.2199 21.435C61.5499 21.615 61.7149 21.885 61.7149 22.245C61.7149 22.335 61.5649 22.71 61.2649 23.37C60.9949 24 60.6649 24.765 60.2749 25.665C59.9149 26.565 59.5849 27.495 59.2849 28.455C59.0149 29.385 58.8799 30.21 58.8799 30.93C58.8799 31.35 58.9549 31.725 59.1049 32.055C59.2849 32.355 59.6149 32.505 60.0949 32.505C60.7249 32.505 61.4749 32.22 62.3449 31.65C63.2149 31.08 64.1149 30.255 65.0449 29.175C65.9749 28.095 66.7999 26.805 67.5199 25.305L68.1949 25.845C67.5349 27.465 66.6799 28.92 65.6299 30.21C64.5799 31.5 63.4549 32.505 62.2549 33.225C61.0549 33.975 59.8849 34.35 58.7449 34.35C57.8749 34.35 57.2149 34.14 56.7649 33.72C56.3449 33.33 56.0599 32.82 55.9099 32.19C55.7599 31.53 55.6699 30.87 55.6399 30.21V29.31C55.1299 30.12 54.5749 30.915 53.9749 31.695C53.3749 32.445 52.7299 33.075 52.0399 33.585C51.3799 34.095 50.6749 34.35 49.9249 34.35ZM74.6932 34.17C73.5832 34.17 72.6832 33.87 71.9932 33.27C71.3032 32.7 70.9582 31.92 70.9582 30.93C70.9582 30.09 71.1682 29.19 71.5882 28.23C72.0082 27.27 72.4282 26.325 72.8482 25.395C73.2982 24.465 73.5232 23.64 73.5232 22.92C73.5232 22.23 73.2982 21.66 72.8482 21.21C72.3982 20.73 71.8732 20.34 71.2732 20.04C70.6132 21.69 69.8632 23.295 69.0232 24.855C68.2132 26.385 67.5532 27.585 67.0432 28.455L66.3682 27.15C66.7882 26.37 67.3432 25.26 68.0332 23.82C68.7232 22.38 69.3832 20.775 70.0132 19.005C69.7132 18.705 69.5632 18.3 69.5632 17.79C69.5632 17.01 69.8032 16.275 70.2832 15.585C70.7632 14.895 71.2282 14.55 71.6782 14.55C72.0382 14.55 72.2932 14.76 72.4432 15.18C72.6232 15.57 72.7132 15.84 72.7132 15.99C72.7132 16.14 72.6382 16.41 72.4882 16.8C72.3682 17.19 72.2782 17.475 72.2182 17.655C72.2482 17.985 72.5032 18.315 72.9832 18.645C73.4932 18.945 74.0632 19.305 74.6932 19.725C75.3232 20.145 75.8782 20.67 76.3582 21.3C76.8382 21.93 77.0782 22.725 77.0782 23.685C77.0782 24.555 76.8832 25.44 76.4932 26.34C76.1032 27.24 75.7132 28.08 75.3232 28.86C74.9332 29.64 74.7382 30.315 74.7382 30.885C74.7382 31.305 74.8432 31.59 75.0532 31.74C75.2932 31.86 75.5632 31.92 75.8632 31.92C76.5832 31.92 77.3332 31.71 78.1132 31.29C78.8932 30.84 79.6582 30.27 80.4082 29.58C81.1582 28.89 81.8182 28.17 82.3882 27.42C82.9582 26.64 83.3932 25.935 83.6932 25.305L84.7732 26.115C84.2032 27.405 83.3782 28.68 82.2982 29.94C81.2182 31.17 80.0182 32.19 78.6982 33C77.3782 33.78 76.0432 34.17 74.6932 34.17ZM114.07 36.915C112.96 36.915 111.715 36.69 110.335 36.24C108.955 35.79 107.53 35.25 106.06 34.62C104.62 33.99 103.21 33.39 101.83 32.82C101.08 33.63 100.27 34.26 99.4003 34.71C98.5303 35.16 97.6003 35.385 96.6103 35.385C95.5603 35.385 94.6603 35.145 93.9103 34.665C93.1303 34.215 92.5453 33.66 92.1553 33C91.7353 32.34 91.5253 31.74 91.5253 31.2C91.5253 30.6 91.7953 30.075 92.3353 29.625C92.8753 29.175 93.8353 28.95 95.2153 28.95C96.0253 28.95 96.9103 29.04 97.8703 29.22C98.8603 29.37 99.8653 29.58 100.885 29.85C101.575 28.65 102.205 27.24 102.775 25.62C103.375 24 103.96 22.305 104.53 20.535C105.1 18.735 105.67 16.98 106.24 15.27C104.74 14.76 103.585 14.055 102.775 13.155C101.965 12.225 101.56 11.295 101.56 10.365C101.56 9.765 101.71 9.18 102.01 8.61C102.31 8.01 102.745 7.515 103.315 7.125C103.885 6.705 104.56 6.495 105.34 6.495C104.95 6.975 104.695 7.515 104.575 8.115C104.485 8.715 104.44 9.195 104.44 9.555C104.44 10.545 104.665 11.385 105.115 12.075C105.565 12.765 106.12 13.305 106.78 13.695C107.35 11.985 107.95 10.35 108.58 8.79C109.24 7.2 109.96 5.805 110.74 4.605C111.55 3.375 112.435 2.4 113.395 1.68C114.385 0.959999 115.495 0.599999 116.725 0.599999C117.415 0.599999 118.135 0.749999 118.885 1.05C119.665 1.32 120.325 1.8 120.865 2.49C121.435 3.18 121.72 4.17 121.72 5.46C121.72 6.48 121.495 7.575 121.045 8.745C120.625 9.915 119.95 11.04 119.02 12.12C118.09 13.17 116.89 14.055 115.42 14.775C113.98 15.465 112.225 15.84 110.155 15.9H109.75C108.91 18.51 107.98 21.135 106.96 23.775C105.94 26.415 104.815 28.68 103.585 30.57C104.755 30.9 106.045 31.275 107.455 31.695C108.895 32.115 110.32 32.475 111.73 32.775C113.17 33.045 114.43 33.18 115.51 33.18C116.23 33.18 116.89 33.105 117.49 32.955C118.12 32.775 118.78 32.52 119.47 32.19C118.87 33.87 118.12 35.07 117.22 35.79C116.35 36.54 115.3 36.915 114.07 36.915ZM110.245 14.415C111.565 14.325 112.735 13.905 113.755 13.155C114.775 12.405 115.645 11.505 116.365 10.455C117.085 9.405 117.625 8.34 117.985 7.26C118.375 6.15 118.57 5.19 118.57 4.38C118.57 3.6 118.42 3.075 118.12 2.805C117.82 2.505 117.475 2.355 117.085 2.355C116.215 2.355 115.39 2.91 114.61 4.02C113.83 5.13 113.08 6.6 112.36 8.43C111.67 10.23 110.965 12.225 110.245 14.415ZM96.1603 33.72C96.9403 33.72 97.5703 33.54 98.0503 33.18C98.5303 32.85 99.0103 32.43 99.4903 31.92C98.5603 31.59 97.6903 31.32 96.8803 31.11C96.0703 30.87 95.3653 30.75 94.7653 30.75C94.1953 30.75 93.7903 30.855 93.5503 31.065C93.2803 31.275 93.1453 31.53 93.1453 31.83C93.1453 32.31 93.4453 32.745 94.0453 33.135C94.6453 33.525 95.3503 33.72 96.1603 33.72ZM124.27 34.44C122.92 34.44 121.99 33.99 121.48 33.09C121 32.22 120.76 31.26 120.76 30.21C120.76 29.25 120.91 28.275 121.21 27.285C121.51 26.265 121.915 25.32 122.425 24.45C122.965 23.58 123.55 22.89 124.18 22.38C124.84 21.84 125.5 21.57 126.16 21.57C126.37 21.57 126.61 21.615 126.88 21.705C127.18 21.765 127.39 21.87 127.51 22.02C127.03 22.62 126.535 23.4 126.025 24.36C125.545 25.29 125.14 26.265 124.81 27.285C124.51 28.305 124.36 29.235 124.36 30.075C124.36 30.675 124.465 31.17 124.675 31.56C124.915 31.95 125.32 32.145 125.89 32.145C126.46 32.145 127.135 31.83 127.915 31.2C128.725 30.54 129.49 29.79 130.21 28.95C129.25 28.08 128.56 27.135 128.14 26.115C127.72 25.065 127.51 23.805 127.51 22.335C127.51 21.705 127.66 20.985 127.96 20.175C128.29 19.365 128.8 18.66 129.49 18.06C130.21 17.46 131.17 17.16 132.37 17.16C133.66 17.16 134.56 17.52 135.07 18.24C135.61 18.96 135.88 19.815 135.88 20.805C135.88 21.915 135.58 23.16 134.98 24.54C134.41 25.92 133.72 27.225 132.91 28.455C133.27 28.635 133.69 28.725 134.17 28.725C134.62 28.725 135.16 28.62 135.79 28.41C136.42 28.2 137.035 27.855 137.635 27.375C138.235 26.865 138.715 26.19 139.075 25.35L139.885 25.935C139.225 27.465 138.34 28.59 137.23 29.31C136.15 30 135.085 30.345 134.035 30.345C133.645 30.345 133.255 30.315 132.865 30.255C132.475 30.165 132.115 30.06 131.785 29.94C130.765 31.14 129.595 32.19 128.275 33.09C126.955 33.99 125.62 34.44 124.27 34.44ZM131.38 27.51C132.1 26.46 132.715 25.335 133.225 24.135C133.735 22.935 133.99 21.825 133.99 20.805C133.99 19.485 133.57 18.825 132.73 18.825C132.16 18.825 131.575 19.23 130.975 20.04C130.375 20.85 130.075 21.87 130.075 23.1C130.075 23.73 130.18 24.495 130.39 25.395C130.63 26.295 130.96 27 131.38 27.51ZM140.293 45.6C139.543 45.6 138.838 45.375 138.178 44.925C137.548 44.475 137.233 43.74 137.233 42.72C137.233 41.76 137.503 40.89 138.043 40.11C138.613 39.36 139.348 38.655 140.248 37.995C141.178 37.365 142.168 36.78 143.218 36.24C144.268 35.7 145.288 35.19 146.278 34.71C146.608 33.9 146.923 33.03 147.223 32.1C147.523 31.17 147.808 30.165 148.078 29.085C147.028 30.405 145.918 31.5 144.748 32.37C143.608 33.24 142.438 33.675 141.238 33.675C140.038 33.675 139.078 33.255 138.358 32.415C137.668 31.575 137.323 30.465 137.323 29.085C137.323 27.495 137.713 26.01 138.493 24.63C139.303 23.22 140.338 21.975 141.598 20.895C142.858 19.785 144.208 18.93 145.648 18.33C147.088 17.7 148.468 17.385 149.788 17.385C150.748 17.385 151.468 17.565 151.948 17.925C152.428 18.255 152.668 18.645 152.668 19.095C152.668 19.455 152.563 19.74 152.353 19.95C152.143 20.16 152.008 20.28 151.948 20.31C151.648 19.98 151.333 19.77 151.003 19.68C150.703 19.56 150.343 19.5 149.923 19.5C148.753 19.5 147.628 19.83 146.548 20.49C145.468 21.15 144.508 22.005 143.668 23.055C142.858 24.075 142.213 25.14 141.733 26.25C141.253 27.36 141.013 28.365 141.013 29.265C141.013 29.865 141.148 30.33 141.418 30.66C141.688 30.96 142.018 31.11 142.408 31.11C143.248 31.11 144.268 30.57 145.468 29.49C146.668 28.38 147.823 27.045 148.933 25.485C149.023 25.035 149.113 24.63 149.203 24.27C149.503 23.07 149.863 22.185 150.283 21.615C150.703 21.045 151.288 20.76 152.038 20.76C152.188 20.76 152.368 20.775 152.578 20.805C152.818 20.835 153.073 20.88 153.343 20.94C153.343 21.48 153.193 22.365 152.893 23.595C152.593 24.825 152.188 26.265 151.678 27.915C151.168 29.535 150.598 31.2 149.968 32.91C150.898 32.52 151.843 31.98 152.803 31.29C153.763 30.57 154.648 29.715 155.458 28.725C156.268 27.705 156.883 26.58 157.303 25.35L158.113 26.16C157.633 27.54 156.883 28.8 155.863 29.94C154.873 31.08 153.793 32.07 152.623 32.91C151.453 33.72 150.373 34.35 149.383 34.8C148.573 36.78 147.688 38.58 146.728 40.2C145.798 41.85 144.793 43.155 143.713 44.115C142.663 45.105 141.523 45.6 140.293 45.6ZM140.113 43.53C140.653 43.53 141.388 43.02 142.318 42C143.278 40.98 144.313 39.255 145.423 36.825C144.313 37.365 143.293 37.92 142.363 38.49C141.433 39.06 140.683 39.66 140.113 40.29C139.543 40.92 139.258 41.58 139.258 42.27C139.258 43.11 139.543 43.53 140.113 43.53ZM159.162 34.44C157.812 34.44 156.882 33.99 156.372 33.09C155.892 32.22 155.652 31.26 155.652 30.21C155.652 29.25 155.802 28.275 156.102 27.285C156.402 26.265 156.807 25.32 157.317 24.45C157.857 23.58 158.442 22.89 159.072 22.38C159.732 21.84 160.392 21.57 161.052 21.57C161.262 21.57 161.502 21.615 161.772 21.705C162.072 21.765 162.282 21.87 162.402 22.02C161.922 22.62 161.427 23.4 160.917 24.36C160.437 25.29 160.032 26.265 159.702 27.285C159.402 28.305 159.252 29.235 159.252 30.075C159.252 30.675 159.357 31.17 159.567 31.56C159.807 31.95 160.212 32.145 160.782 32.145C161.352 32.145 162.027 31.83 162.807 31.2C163.617 30.54 164.382 29.79 165.102 28.95C164.142 28.08 163.452 27.135 163.032 26.115C162.612 25.065 162.402 23.805 162.402 22.335C162.402 21.705 162.552 20.985 162.852 20.175C163.182 19.365 163.692 18.66 164.382 18.06C165.102 17.46 166.062 17.16 167.262 17.16C168.552 17.16 169.452 17.52 169.962 18.24C170.502 18.96 170.772 19.815 170.772 20.805C170.772 21.915 170.472 23.16 169.872 24.54C169.302 25.92 168.612 27.225 167.802 28.455C168.162 28.635 168.582 28.725 169.062 28.725C169.512 28.725 170.052 28.62 170.682 28.41C171.312 28.2 171.927 27.855 172.527 27.375C173.127 26.865 173.607 26.19 173.967 25.35L174.777 25.935C174.117 27.465 173.232 28.59 172.122 29.31C171.042 30 169.977 30.345 168.927 30.345C168.537 30.345 168.147 30.315 167.757 30.255C167.367 30.165 167.007 30.06 166.677 29.94C165.657 31.14 164.487 32.19 163.167 33.09C161.847 33.99 160.512 34.44 159.162 34.44ZM166.272 27.51C166.992 26.46 167.607 25.335 168.117 24.135C168.627 22.935 168.882 21.825 168.882 20.805C168.882 19.485 168.462 18.825 167.622 18.825C167.052 18.825 166.467 19.23 165.867 20.04C165.267 20.85 164.967 21.87 164.967 23.1C164.967 23.73 165.072 24.495 165.282 25.395C165.522 26.295 165.852 27 166.272 27.51Z" fill="black"/>
</svg>
